<svg width="30" height="30" xmlns="http://www.w3.org/2000/svg">

 <g>
  <title>background</title>
  <rect fill="none" id="canvas_background" height="402" width="582" y="-1" x="-1"/>
 </g>
 <g>
  <title>Layer 1</title>
  <path fill="#ffffff" stroke="#000000" stroke-opacity="0" id="svg_1" d="m15,3c-6.627,0 -12,5.373 -12,12c0,6.627 5.373,12 12,12s12,-5.373 12,-12c0,-6.627 -5.373,-12 -12,-12zm6,13l-5,0l0,5c0,0.553 -0.448,1 -1,1s-1,-0.447 -1,-1l0,-5l-5,0c-0.552,0 -1,-0.447 -1,-1s0.448,-1 1,-1l5,0l0,-5c0,-0.553 0.448,-1 1,-1s1,0.447 1,1l0,5l5,0c0.552,0 1,0.447 1,1s-0.448,1 -1,1z"/>
 </g>
</svg>